ply
format ascii 1.0
comment VCGLIB generated
element vertex 80
property float x
property float y
property float z
element face 156
property list uchar int vertex_indices
end_header
-0.438157 -0.431792 0.393875 
-0.438157 -0.431792 -0.499406 
0.455124 -0.431792 -0.499406 
0.455124 -0.431792 0.393875 
-0.438157 0.461489 0.393875 
-0.438157 0.461489 -0.499406 
0.455124 0.461489 -0.499406 
0.455124 0.461489 0.393875 
-0.438157 0.461489 0.301312 
-0.438157 0.461489 -0.4068421 
-0.438157 0.363826 -0.499406 
-0.438157 -0.334129 -0.499406 
-0.438157 -0.431792 -0.4068421 
-0.438157 -0.431792 0.301312 
-0.438157 -0.334129 0.393875 
-0.438157 0.363826 0.393875 
-0.334838 0.461489 -0.499406 
0.351805 0.461489 -0.499406 
0.455124 0.363826 -0.499406 
0.455124 -0.334129 -0.499406 
0.351805 -0.431792 -0.499406 
-0.334838 -0.431792 -0.499406 
0.455124 0.461489 -0.4068421 
0.455124 0.461489 0.301312 
0.455124 0.363826 0.393875 
0.455124 -0.334129 0.393875 
0.455124 -0.431792 0.301312 
0.455124 -0.431792 -0.4068421 
0.351805 0.461489 0.393875 
-0.334838 0.461489 0.393875 
-0.334838 -0.431792 0.393875 
0.351805 -0.431792 0.393875 
-0.438157 0.363826 0.301312 
-0.438157 -0.334129 0.301312 
-0.438157 0.363826 -0.4068421 
-0.438157 -0.334129 -0.4068421 
-0.334838 0.363826 -0.499406 
-0.334838 -0.334129 -0.499406 
0.351805 0.363826 -0.499406 
0.351805 -0.334129 -0.499406 
0.455124 0.363826 -0.4068421 
0.455124 -0.334129 -0.4068421 
0.455124 0.363826 0.301312 
0.455124 -0.334129 0.301312 
0.351805 0.363826 0.393875 
0.351805 -0.334129 0.393875 
-0.334838 0.363826 0.393875 
-0.334838 -0.334129 0.393875 
-0.334838 -0.431792 0.301312 
0.351805 -0.431792 0.301312 
-0.334838 -0.431792 -0.4068421 
0.351805 -0.431792 -0.4068421 
0.351805 0.461489 0.301312 
-0.334838 0.461489 0.301312 
0.351805 0.461489 -0.4068421 
-0.334838 0.461489 -0.4068421 
-0.413855 0.344838 0.282046 
-0.413855 -0.315141 0.282046 
-0.413855 0.344838 -0.387577 
-0.413855 -0.315141 -0.387577 
-0.316158 0.344838 -0.475104 
-0.316158 -0.315141 -0.475104 
0.333125 0.344838 -0.475104 
0.333125 -0.315141 -0.475104 
0.430822 0.344838 -0.387577 
0.430822 -0.315141 -0.387577 
0.430822 0.344838 0.282046 
0.430822 -0.315141 0.282046 
0.333125 0.344838 0.369573 
0.333125 -0.315141 0.369573 
-0.316158 0.344838 0.369573 
-0.316158 -0.315141 0.369573 
-0.316158 -0.40749 0.282046 
0.333125 -0.40749 0.282046 
-0.316158 -0.40749 -0.387577 
0.333125 -0.40749 -0.387577 
0.333125 0.437187 0.282046 
-0.316158 0.437187 0.282046 
0.333125 0.437187 -0.387577 
-0.316158 0.437187 -0.387577 
3 35 11 1 
3 35 1 12 
3 39 19 2 
3 39 2 20 
3 43 25 3 
3 43 3 26 
3 0 30 47 
3 0 47 14 
3 51 20 2 
3 51 2 27 
3 55 16 5 
3 55 5 9 
3 13 0 14 
3 13 14 33 
3 33 35 12 
3 33 12 13 
3 4 8 32 
3 4 32 15 
3 15 32 33 
3 15 33 14 
3 8 9 34 
3 8 34 32 
3 78 76 52 
3 78 52 54 
3 9 5 10 
3 9 10 34 
3 34 10 11 
3 34 11 35 
3 11 37 21 
3 11 21 1 
3 37 39 20 
3 37 20 21 
3 5 16 36 
3 5 36 10 
3 10 36 37 
3 10 37 11 
3 16 17 38 
3 16 38 36 
3 47 45 69 
3 47 69 71 
3 17 6 18 
3 17 18 38 
3 38 18 19 
3 38 19 39 
3 19 41 27 
3 19 27 2 
3 41 43 26 
3 41 26 27 
3 6 22 40 
3 6 40 18 
3 18 40 41 
3 18 41 19 
3 22 23 42 
3 22 42 40 
3 51 49 73 
3 51 73 75 
3 23 7 24 
3 23 24 42 
3 42 24 25 
3 42 25 43 
3 25 45 31 
3 25 31 3 
3 45 47 30 
3 45 30 31 
3 7 28 44 
3 7 44 24 
3 24 44 45 
3 24 45 25 
3 28 29 46 
3 28 46 44 
3 33 32 56 
3 33 56 57 
3 29 4 15 
3 29 15 46 
3 46 15 14 
3 46 14 47 
3 31 49 26 
3 31 26 3 
3 49 51 27 
3 49 27 26 
3 0 13 48 
3 0 48 30 
3 30 48 49 
3 30 49 31 
3 13 12 50 
3 13 50 48 
3 55 53 77 
3 55 77 79 
3 12 1 21 
3 12 21 50 
3 50 21 20 
3 50 20 51 
3 29 53 8 
3 29 8 4 
3 53 55 9 
3 53 9 8 
3 7 23 52 
3 7 52 28 
3 28 52 53 
3 28 53 29 
3 23 22 54 
3 23 54 52 
3 59 58 34 
3 59 34 35 
3 22 6 17 
3 22 17 54 
3 54 17 16 
3 54 16 55 
3 56 58 59 
3 56 59 57 
3 60 62 63 
3 60 63 61 
3 64 66 67 
3 64 67 65 
3 68 70 71 
3 68 71 69 
3 72 74 75 
3 72 75 73 
3 76 78 79 
3 76 79 77 
3 43 41 65 
3 43 65 67 
3 79 78 54 
3 79 54 55 
3 53 52 76 
3 53 76 77 
3 74 72 48 
3 74 48 50 
3 39 37 61 
3 39 61 63 
3 75 74 50 
3 75 50 51 
3 49 48 72 
3 49 72 73 
3 70 68 44 
3 70 44 46 
3 35 33 57 
3 35 57 59 
3 71 70 46 
3 71 46 47 
3 45 44 68 
3 45 68 69 
3 66 64 40 
3 66 40 42 
3 67 66 42 
3 67 42 43 
3 41 40 64 
3 41 64 65 
3 62 60 36 
3 62 36 38 
3 63 62 38 
3 63 38 39 
3 37 36 60 
3 37 60 61 
3 58 56 32 
3 58 32 34 
